<svg width="107" height="40" viewBox="0 0 107 40" fill="none" xmlns="http://www.w3.org/2000/svg">
<path d="M3.69366 5.89844C3.15981 5.89844 2.7171 5.85938 2.36554 5.78125C2.027 5.70312 1.74705 5.56641 1.5257 5.37109C1.31736 5.17578 1.16762 4.90885 1.07648 4.57031C0.998352 4.23177 0.95929 3.79557 0.95929 3.26172C0.95929 2.72786 0.998352 2.29167 1.07648 1.95312C1.16762 1.60156 1.31736 1.32161 1.5257 1.11328C1.74705 0.904948 2.027 0.761719 2.36554 0.683594C2.7171 0.605469 3.15981 0.566406 3.69366 0.566406C4.22752 0.566406 4.66372 0.605469 5.00226 0.683594C5.35382 0.761719 5.63377 0.904948 5.8421 1.11328C6.05044 1.32161 6.19366 1.60156 6.27179 1.95312C6.34991 2.29167 6.38898 2.72786 6.38898 3.26172C6.38898 3.79557 6.34991 4.23177 6.27179 4.57031C6.19366 4.90885 6.05044 5.17578 5.8421 5.37109C5.63377 5.56641 5.35382 5.70312 5.00226 5.78125C4.66372 5.85938 4.22752 5.89844 3.69366 5.89844ZM1.36945 9.39453H6.01788V30H1.36945V9.39453ZM14.2601 13.2422H11.2132V9.39453H14.2601V5.03906L18.889 4.00391V9.39453H24.0843V13.2422H18.889V24.3164C18.889 24.7982 18.9215 25.1953 18.9866 25.5078C19.0648 25.8203 19.195 26.0742 19.3773 26.2695C19.5726 26.4518 19.8395 26.582 20.178 26.6602C20.5296 26.7253 20.9788 26.7578 21.5257 26.7578C22.0335 26.7578 22.4892 26.7513 22.8929 26.7383C23.3095 26.7122 23.6611 26.6862 23.9476 26.6602C24.2861 26.6341 24.5856 26.6016 24.846 26.5625V29.6484C24.3903 29.8307 23.902 29.9935 23.3812 30.1367C22.9254 30.2539 22.3916 30.3581 21.7796 30.4492C21.1676 30.5534 20.497 30.6055 19.7679 30.6055C18.7523 30.6055 17.8929 30.5078 17.1898 30.3125C16.4997 30.1172 15.9332 29.8242 15.4905 29.4336C15.0609 29.0299 14.7484 28.5286 14.553 27.9297C14.3577 27.3177 14.2601 26.6081 14.2601 25.8008V13.2422ZM28.928 24.1602C28.928 22.9883 29.0973 21.9987 29.4359 21.1914C29.7874 20.3841 30.2562 19.7331 30.8421 19.2383C31.4411 18.7435 32.1377 18.3854 32.9319 18.1641C33.7392 17.9427 34.6051 17.832 35.5296 17.832C36.4671 17.832 37.3135 17.8841 38.0687 17.9883C38.8369 18.0924 39.501 18.2096 40.0609 18.3398C40.6989 18.4831 41.2783 18.6458 41.7991 18.8281V16.9141C41.7991 16.4323 41.7796 16.0286 41.7405 15.7031C41.7145 15.3646 41.6624 15.0716 41.5843 14.8242C41.5062 14.5768 41.3955 14.3685 41.2523 14.1992C41.122 14.0299 40.9593 13.8672 40.764 13.7109C40.3473 13.4115 39.7744 13.1966 39.0452 13.0664C38.3161 12.9362 37.3655 12.8711 36.1937 12.8711C35.4515 12.8711 34.7288 12.8971 34.0257 12.9492C33.3356 12.9883 32.7171 13.0404 32.1702 13.1055C31.5322 13.1706 30.9267 13.2422 30.3538 13.3203V10.0781C30.8747 9.86979 31.5192 9.68099 32.2874 9.51172C32.9385 9.36849 33.7523 9.23828 34.7288 9.12109C35.7054 8.99089 36.8642 8.92578 38.2054 8.92578C39.1038 8.92578 39.8981 8.96484 40.5882 9.04297C41.2913 9.10807 41.9098 9.22526 42.4437 9.39453C42.9775 9.5638 43.4463 9.78516 43.8499 10.0586C44.2666 10.332 44.6377 10.6706 44.9632 11.0742C45.2366 11.4128 45.4645 11.7708 45.6468 12.1484C45.8291 12.526 45.9788 12.9688 46.096 13.4766C46.2132 13.9844 46.2913 14.5703 46.3304 15.2344C46.3825 15.8854 46.4085 16.6471 46.4085 17.5195V30H42.4827L42.1312 28.4766C41.5582 28.8802 40.9267 29.2383 40.2366 29.5508C39.6377 29.8112 38.9345 30.0521 38.1273 30.2734C37.333 30.4948 36.4541 30.6055 35.4905 30.6055C34.3187 30.6055 33.3161 30.4883 32.4827 30.2539C31.6494 30.0195 30.9658 29.6484 30.4319 29.1406C29.9111 28.6328 29.527 27.9688 29.2796 27.1484C29.0452 26.3281 28.928 25.332 28.928 24.1602ZM33.6741 24.1602C33.6741 24.7331 33.7457 25.1888 33.889 25.5273C34.0322 25.8659 34.2405 26.1263 34.514 26.3086C34.7874 26.4779 35.1194 26.5885 35.5101 26.6406C35.9137 26.6927 36.3694 26.7188 36.8773 26.7188C37.5413 26.7188 38.1663 26.6602 38.7523 26.543C39.3512 26.4128 39.8786 26.276 40.3343 26.1328C40.8551 25.9635 41.3434 25.7682 41.7991 25.5469V21.9727C41.3825 21.8945 40.9332 21.8229 40.4515 21.7578C40.0348 21.6927 39.5595 21.6406 39.0257 21.6016C38.5049 21.5495 37.9515 21.5234 37.3655 21.5234C36.7145 21.5234 36.1546 21.556 35.6859 21.6211C35.2301 21.6732 34.8525 21.7969 34.553 21.9922C34.2536 22.1745 34.0322 22.4414 33.889 22.793C33.7457 23.1315 33.6741 23.5872 33.6741 24.1602ZM59.4749 30.6055C58.251 30.6055 57.1702 30.4167 56.2327 30.0391C55.3082 29.6745 54.527 29.069 53.889 28.2227C53.264 27.3633 52.7887 26.237 52.4632 24.8438C52.1507 23.4505 51.9944 21.7318 51.9944 19.6875C51.9944 17.8125 52.1442 16.1914 52.4437 14.8242C52.7431 13.444 53.1924 12.3112 53.7913 11.4258C54.4033 10.5404 55.165 9.88281 56.0765 9.45312C56.9879 9.02344 58.0491 8.80859 59.2601 8.80859C60.2627 8.80859 61.1937 8.91927 62.053 9.14062C62.9254 9.36198 63.6872 9.60286 64.3382 9.86328C65.0934 10.1758 65.79 10.5273 66.428 10.918L66.9554 9.39453H70.3538V39.4727H65.7054V29.1992C65.1455 29.4596 64.5335 29.694 63.8694 29.9023C63.2965 30.0846 62.6325 30.2474 61.8773 30.3906C61.1351 30.5339 60.3343 30.6055 59.4749 30.6055ZM61.1546 26.4453C61.8317 26.4453 62.4502 26.4193 63.0101 26.3672C63.57 26.3021 64.0517 26.237 64.4554 26.1719C64.9241 26.0938 65.3408 25.9961 65.7054 25.8789V13.8086C65.2366 13.6523 64.7418 13.5091 64.221 13.3789C63.7653 13.2747 63.2379 13.1771 62.639 13.0859C62.053 12.9818 61.4345 12.9297 60.7835 12.9297C59.9762 12.9297 59.3187 13.0339 58.8109 13.2422C58.3161 13.4505 57.9189 13.8086 57.6194 14.3164C57.333 14.8242 57.1377 15.5078 57.0335 16.3672C56.9293 17.2135 56.8773 18.2747 56.8773 19.5508C56.8773 21.0221 56.9359 22.2135 57.053 23.125C57.1832 24.0234 57.4111 24.7201 57.7366 25.2148C58.0622 25.7096 58.4984 26.0417 59.0452 26.2109C59.6051 26.3672 60.3082 26.4453 61.1546 26.4453ZM79.514 5.89844C78.9801 5.89844 78.5374 5.85938 78.1859 5.78125C77.8473 5.70312 77.5674 5.56641 77.346 5.37109C77.1377 5.17578 76.9879 4.90885 76.8968 4.57031C76.8187 4.23177 76.7796 3.79557 76.7796 3.26172C76.7796 2.72786 76.8187 2.29167 76.8968 1.95312C76.9879 1.60156 77.1377 1.32161 77.346 1.11328C77.5674 0.904948 77.8473 0.761719 78.1859 0.683594C78.5374 0.605469 78.9801 0.566406 79.514 0.566406C80.0478 0.566406 80.484 0.605469 80.8226 0.683594C81.1741 0.761719 81.4541 0.904948 81.6624 1.11328C81.8707 1.32161 82.014 1.60156 82.0921 1.95312C82.1702 2.29167 82.2093 2.72786 82.2093 3.26172C82.2093 3.79557 82.1702 4.23177 82.0921 4.57031C82.014 4.90885 81.8707 5.17578 81.6624 5.37109C81.4541 5.56641 81.1741 5.70312 80.8226 5.78125C80.484 5.85938 80.0478 5.89844 79.514 5.89844ZM77.1898 9.39453H81.8382V30H77.1898V9.39453ZM88.6351 9.39453H92.0335L92.5999 10.918C93.3161 10.5273 94.0973 10.1758 94.9437 9.86328C95.6728 9.60286 96.5127 9.36198 97.4632 9.14062C98.4137 8.91927 99.4293 8.80859 100.51 8.80859C102.541 8.80859 104.039 9.34245 105.002 10.4102C105.979 11.4648 106.467 13.125 106.467 15.3906V30H101.838V15.957C101.838 15.4232 101.799 14.9674 101.721 14.5898C101.656 14.1992 101.506 13.8867 101.272 13.6523C101.037 13.4049 100.699 13.2227 100.256 13.1055C99.8135 12.9883 99.221 12.9297 98.4788 12.9297C97.6976 12.9297 96.9879 12.9818 96.3499 13.0859C95.7119 13.1771 95.165 13.2747 94.7093 13.3789C94.1754 13.5091 93.6937 13.6523 93.264 13.8086V30H88.6351V9.39453Z" fill="black"/>
</svg>
