<svg width="74" height="75" viewBox="0 0 74 75" fill="none" xmlns="http://www.w3.org/2000/svg">
<path d="M5 22.7419L3.08424 19.2305L0.975265 20.3812L1.00022 22.7835L5 22.7419ZM5.36854 58.2258L1.36876 58.2674L1.38453 59.7859L2.40407 60.9113L5.36854 58.2258ZM69.9615 22.7419L73.9615 22.7376L73.9589 20.369L71.8808 19.2325L69.9615 22.7419ZM70 58.2258L71.9766 61.7033L74.0025 60.5518L74 58.2215L70 58.2258ZM37.5192 5L39.4385 1.49052L37.5215 0.442164L35.6035 1.48861L37.5192 5ZM47.5254 71V75H48.5827L49.5019 74.4775L47.5254 71ZM40.9113 71H36.9113V75H40.9113V71ZM40.9113 35.4071H44.9113V31.4071H40.9113V35.4071ZM30.0881 31.4071C27.8789 31.4071 26.0881 33.198 26.0881 35.4071C26.0881 37.6163 27.8789 39.4071 30.0881 39.4071V31.4071ZM16.9406 71L13.9762 73.6855L15.167 75H16.9406V71ZM24.2187 75H28.2187V67H24.2187V75ZM1.00022 22.7835L1.36876 58.2674L9.36833 58.1843L8.99978 22.7004L1.00022 22.7835ZM65.9615 22.7463L66 58.2302L74 58.2215L73.9615 22.7376L65.9615 22.7463ZM35.6035 1.48861L3.08424 19.2305L6.91576 26.2533L39.435 8.51139L35.6035 1.48861ZM68.0234 54.7483L45.5488 67.5225L49.5019 74.4775L71.9766 61.7033L68.0234 54.7483ZM47.5254 67H40.9113V75H47.5254V67ZM35.6 8.50948L68.0422 26.2514L71.8808 19.2325L39.4385 1.49052L35.6 8.50948ZM36.9113 35.4071V71H44.9113V35.4071H36.9113ZM30.0881 39.4071H40.9113V31.4071H30.0881V39.4071ZM2.40407 60.9113L13.9762 73.6855L19.9051 68.3145L8.33301 55.5403L2.40407 60.9113ZM16.9406 75H24.2187V67H16.9406V75Z" fill="#FFFEFE"/>
</svg>
