<svg width="176" height="50" viewBox="0 0 176 50" fill="none" xmlns="http://www.w3.org/2000/svg">
<path d="M4.2243 15.7527L2.31443 12.2381L0.199422 13.3874L0.224522 15.7944L4.2243 15.7527ZM4.44856 37.2581L0.448774 37.2998L0.464654 38.8227L1.48942 39.9495L4.44856 37.2581ZM43.7523 15.7527L47.7523 15.7483L47.7497 13.3752L45.6656 12.24L43.7523 15.7527ZM43.7757 37.2581L45.7463 40.739L47.7782 39.5887L47.7757 37.2537L43.7757 37.2581ZM24.0117 5L25.9251 1.4873L24.014 0.446327L22.1018 1.4854L24.0117 5ZM30.1003 45V49H31.1539L32.0709 48.4809L30.1003 45ZM26.0757 45H22.0757V49H26.0757V45ZM15.9185 49H19.9185V41H15.9185V49ZM26.0757 23.4286H30.0757V19.4286H26.0757V23.4286ZM19.49 19.4286C17.2808 19.4286 15.49 21.2194 15.49 23.4286C15.49 25.6377 17.2808 27.4286 19.49 27.4286V19.4286ZM11.49 45L8.53084 47.6914L9.72105 49H11.49V45ZM0.224522 15.7944L0.448774 37.2998L8.44834 37.2164L8.22409 15.711L0.224522 15.7944ZM39.7523 15.757L39.7757 37.2624L47.7757 37.2537L47.7523 15.7483L39.7523 15.757ZM22.1018 1.4854L2.31443 12.2381L6.13417 19.2673L25.9216 8.5146L22.1018 1.4854ZM41.8051 33.7772L28.1297 41.5191L32.0709 48.4809L45.7463 40.739L41.8051 33.7772ZM30.1003 41H26.0757V49H30.1003V41ZM22.0983 8.5127L41.8389 19.2654L45.6656 12.24L25.9251 1.4873L22.0983 8.5127ZM22.0757 23.4286V45H30.0757V23.4286H22.0757ZM19.49 27.4286H26.0757V19.4286H19.49V27.4286ZM1.48942 39.9495L8.53084 47.6914L14.4491 42.3086L7.40769 34.5667L1.48942 39.9495ZM11.49 49H15.9185V41H11.49V49Z" fill="black"/>
<path d="M66.6937 15.8984C66.1598 15.8984 65.7171 15.8594 65.3655 15.7812C65.027 15.7031 64.747 15.5664 64.5257 15.3711C64.3174 15.1758 64.1676 14.9089 64.0765 14.5703C63.9984 14.2318 63.9593 13.7956 63.9593 13.2617C63.9593 12.7279 63.9984 12.2917 64.0765 11.9531C64.1676 11.6016 64.3174 11.3216 64.5257 11.1133C64.747 10.9049 65.027 10.7617 65.3655 10.6836C65.7171 10.6055 66.1598 10.5664 66.6937 10.5664C67.2275 10.5664 67.6637 10.6055 68.0023 10.6836C68.3538 10.7617 68.6338 10.9049 68.8421 11.1133C69.0504 11.3216 69.1937 11.6016 69.2718 11.9531C69.3499 12.2917 69.389 12.7279 69.389 13.2617C69.389 13.7956 69.3499 14.2318 69.2718 14.5703C69.1937 14.9089 69.0504 15.1758 68.8421 15.3711C68.6338 15.5664 68.3538 15.7031 68.0023 15.7812C67.6637 15.8594 67.2275 15.8984 66.6937 15.8984ZM64.3694 19.3945H69.0179V40H64.3694V19.3945ZM77.2601 23.2422H74.2132V19.3945H77.2601V15.0391L81.889 14.0039V19.3945H87.0843V23.2422H81.889V34.3164C81.889 34.7982 81.9215 35.1953 81.9866 35.5078C82.0648 35.8203 82.195 36.0742 82.3773 36.2695C82.5726 36.4518 82.8395 36.582 83.178 36.6602C83.5296 36.7253 83.9788 36.7578 84.5257 36.7578C85.0335 36.7578 85.4892 36.7513 85.8929 36.7383C86.3095 36.7122 86.6611 36.6862 86.9476 36.6602C87.2861 36.6341 87.5856 36.6016 87.846 36.5625V39.6484C87.3903 39.8307 86.902 39.9935 86.3812 40.1367C85.9254 40.2539 85.3916 40.3581 84.7796 40.4492C84.1676 40.5534 83.497 40.6055 82.7679 40.6055C81.7523 40.6055 80.8929 40.5078 80.1898 40.3125C79.4997 40.1172 78.9332 39.8242 78.4905 39.4336C78.0609 39.0299 77.7484 38.5286 77.553 37.9297C77.3577 37.3177 77.2601 36.6081 77.2601 35.8008V23.2422ZM91.928 34.1602C91.928 32.9883 92.0973 31.9987 92.4359 31.1914C92.7874 30.3841 93.2562 29.7331 93.8421 29.2383C94.4411 28.7435 95.1377 28.3854 95.9319 28.1641C96.7392 27.9427 97.6051 27.832 98.5296 27.832C99.4671 27.832 100.313 27.8841 101.069 27.9883C101.837 28.0924 102.501 28.2096 103.061 28.3398C103.699 28.4831 104.278 28.6458 104.799 28.8281V26.9141C104.799 26.4323 104.78 26.0286 104.741 25.7031C104.714 25.3646 104.662 25.0716 104.584 24.8242C104.506 24.5768 104.395 24.3685 104.252 24.1992C104.122 24.0299 103.959 23.8672 103.764 23.7109C103.347 23.4115 102.774 23.1966 102.045 23.0664C101.316 22.9362 100.366 22.8711 99.1937 22.8711C98.4515 22.8711 97.7288 22.8971 97.0257 22.9492C96.3356 22.9883 95.7171 23.0404 95.1702 23.1055C94.5322 23.1706 93.9267 23.2422 93.3538 23.3203V20.0781C93.8747 19.8698 94.5192 19.681 95.2874 19.5117C95.9385 19.3685 96.7523 19.2383 97.7288 19.1211C98.7054 18.9909 99.8642 18.9258 101.205 18.9258C102.104 18.9258 102.898 18.9648 103.588 19.043C104.291 19.1081 104.91 19.2253 105.444 19.3945C105.978 19.5638 106.446 19.7852 106.85 20.0586C107.267 20.332 107.638 20.6706 107.963 21.0742C108.237 21.4128 108.464 21.7708 108.647 22.1484C108.829 22.526 108.979 22.9688 109.096 23.4766C109.213 23.9844 109.291 24.5703 109.33 25.2344C109.382 25.8854 109.409 26.6471 109.409 27.5195V40H105.483L105.131 38.4766C104.558 38.8802 103.927 39.2383 103.237 39.5508C102.638 39.8112 101.935 40.0521 101.127 40.2734C100.333 40.4948 99.4541 40.6055 98.4905 40.6055C97.3187 40.6055 96.3161 40.4883 95.4827 40.2539C94.6494 40.0195 93.9658 39.6484 93.4319 39.1406C92.9111 38.6328 92.527 37.9688 92.2796 37.1484C92.0452 36.3281 91.928 35.332 91.928 34.1602ZM96.6741 34.1602C96.6741 34.7331 96.7457 35.1888 96.889 35.5273C97.0322 35.8659 97.2405 36.1263 97.514 36.3086C97.7874 36.4779 98.1194 36.5885 98.5101 36.6406C98.9137 36.6927 99.3694 36.7188 99.8773 36.7188C100.541 36.7188 101.166 36.6602 101.752 36.543C102.351 36.4128 102.879 36.276 103.334 36.1328C103.855 35.9635 104.343 35.7682 104.799 35.5469V31.9727C104.382 31.8945 103.933 31.8229 103.451 31.7578C103.035 31.6927 102.56 31.6406 102.026 31.6016C101.505 31.5495 100.951 31.5234 100.366 31.5234C99.7145 31.5234 99.1546 31.556 98.6859 31.6211C98.2301 31.6732 97.8525 31.7969 97.553 31.9922C97.2536 32.1745 97.0322 32.4414 96.889 32.793C96.7457 33.1315 96.6741 33.5872 96.6741 34.1602ZM122.475 40.6055C121.251 40.6055 120.17 40.4167 119.233 40.0391C118.308 39.6745 117.527 39.069 116.889 38.2227C116.264 37.3633 115.789 36.237 115.463 34.8438C115.151 33.4505 114.994 31.7318 114.994 29.6875C114.994 27.8125 115.144 26.1914 115.444 24.8242C115.743 23.444 116.192 22.3112 116.791 21.4258C117.403 20.5404 118.165 19.8828 119.076 19.4531C119.988 19.0234 121.049 18.8086 122.26 18.8086C123.263 18.8086 124.194 18.9193 125.053 19.1406C125.925 19.362 126.687 19.6029 127.338 19.8633C128.093 20.1758 128.79 20.5273 129.428 20.918L129.955 19.3945H133.354V49.4727H128.705V39.1992C128.145 39.4596 127.534 39.694 126.869 39.9023C126.297 40.0846 125.632 40.2474 124.877 40.3906C124.135 40.5339 123.334 40.6055 122.475 40.6055ZM124.155 36.4453C124.832 36.4453 125.45 36.4193 126.01 36.3672C126.57 36.3021 127.052 36.237 127.455 36.1719C127.924 36.0938 128.341 35.9961 128.705 35.8789V23.8086C128.237 23.6523 127.742 23.5091 127.221 23.3789C126.765 23.2747 126.238 23.1771 125.639 23.0859C125.053 22.9818 124.435 22.9297 123.784 22.9297C122.976 22.9297 122.319 23.0339 121.811 23.2422C121.316 23.4505 120.919 23.8086 120.619 24.3164C120.333 24.8242 120.138 25.5078 120.034 26.3672C119.929 27.2135 119.877 28.2747 119.877 29.5508C119.877 31.0221 119.936 32.2135 120.053 33.125C120.183 34.0234 120.411 34.7201 120.737 35.2148C121.062 35.7096 121.498 36.0417 122.045 36.2109C122.605 36.3672 123.308 36.4453 124.155 36.4453ZM142.514 15.8984C141.98 15.8984 141.537 15.8594 141.186 15.7812C140.847 15.7031 140.567 15.5664 140.346 15.3711C140.138 15.1758 139.988 14.9089 139.897 14.5703C139.819 14.2318 139.78 13.7956 139.78 13.2617C139.78 12.7279 139.819 12.2917 139.897 11.9531C139.988 11.6016 140.138 11.3216 140.346 11.1133C140.567 10.9049 140.847 10.7617 141.186 10.6836C141.537 10.6055 141.98 10.5664 142.514 10.5664C143.048 10.5664 143.484 10.6055 143.823 10.6836C144.174 10.7617 144.454 10.9049 144.662 11.1133C144.871 11.3216 145.014 11.6016 145.092 11.9531C145.17 12.2917 145.209 12.7279 145.209 13.2617C145.209 13.7956 145.17 14.2318 145.092 14.5703C145.014 14.9089 144.871 15.1758 144.662 15.3711C144.454 15.5664 144.174 15.7031 143.823 15.7812C143.484 15.8594 143.048 15.8984 142.514 15.8984ZM140.19 19.3945H144.838V40H140.19V19.3945ZM151.635 19.3945H155.034L155.6 20.918C156.316 20.5273 157.097 20.1758 157.944 19.8633C158.673 19.6029 159.513 19.362 160.463 19.1406C161.414 18.9193 162.429 18.8086 163.51 18.8086C165.541 18.8086 167.039 19.3424 168.002 20.4102C168.979 21.4648 169.467 23.125 169.467 25.3906V40H164.838V25.957C164.838 25.4232 164.799 24.9674 164.721 24.5898C164.656 24.1992 164.506 23.8867 164.272 23.6523C164.037 23.4049 163.699 23.2227 163.256 23.1055C162.813 22.9883 162.221 22.9297 161.479 22.9297C160.698 22.9297 159.988 22.9818 159.35 23.0859C158.712 23.1771 158.165 23.2747 157.709 23.3789C157.175 23.5091 156.694 23.6523 156.264 23.8086V40H151.635V19.3945Z" fill="black"/>
</svg>
