<svg width="48" height="49" viewBox="0 0 48 49" fill="none" xmlns="http://www.w3.org/2000/svg">
<path d="M4.2243 15.7527L2.31443 12.2381L0.199422 13.3874L0.224522 15.7944L4.2243 15.7527ZM4.44856 37.2581L0.448774 37.2998L0.464654 38.8227L1.48942 39.9495L4.44856 37.2581ZM43.7523 15.7527L47.7523 15.7483L47.7497 13.3752L45.6656 12.24L43.7523 15.7527ZM43.7757 37.2581L45.7463 40.739L47.7782 39.5887L47.7757 37.2537L43.7757 37.2581ZM24.0117 5L25.9251 1.4873L24.014 0.446327L22.1018 1.4854L24.0117 5ZM30.1003 45V49H31.1539L32.0709 48.4809L30.1003 45ZM26.0757 45H22.0757V49H26.0757V45ZM15.9185 49H19.9185V41H15.9185V49ZM26.0757 23.4286H30.0757V19.4286H26.0757V23.4286ZM19.49 19.4286C17.2808 19.4286 15.49 21.2194 15.49 23.4286C15.49 25.6377 17.2808 27.4286 19.49 27.4286V19.4286ZM11.49 45L8.53084 47.6914L9.72105 49H11.49V45ZM0.224522 15.7944L0.448774 37.2998L8.44834 37.2164L8.22409 15.711L0.224522 15.7944ZM39.7523 15.757L39.7757 37.2624L47.7757 37.2537L47.7523 15.7483L39.7523 15.757ZM22.1018 1.4854L2.31443 12.2381L6.13417 19.2673L25.9216 8.5146L22.1018 1.4854ZM41.8051 33.7772L28.1297 41.5191L32.0709 48.4809L45.7463 40.739L41.8051 33.7772ZM30.1003 41H26.0757V49H30.1003V41ZM22.0983 8.5127L41.8389 19.2654L45.6656 12.24L25.9251 1.4873L22.0983 8.5127ZM22.0757 23.4286V45H30.0757V23.4286H22.0757ZM19.49 27.4286H26.0757V19.4286H19.49V27.4286ZM1.48942 39.9495L8.53084 47.6914L14.4491 42.3086L7.40769 34.5667L1.48942 39.9495ZM11.49 49H15.9185V41H11.49V49Z" fill="black"/>
</svg>
